<?xml version="1.0" encoding="utf-8"?><svg xmlns="http://www.w3.org/2000/svg" xmlns:xlink="http://www.w3.org/1999/xlink"><symbol viewBox="0 0 264 36" id="burberry" xmlns="http://www.w3.org/2000/svg"><path d="M95.6193 11.322C95.6193 5.55061 90.9167 0.848022 85.1454 0.848022H67.6888V35.0487H75.4552V21.7959H81.6541L89.2067 35.0487H97.8281L89.6342 20.7271C93.3393 19.0171 95.6193 15.312 95.6193 11.322ZM83.5778 15.1695H75.3839V7.47439H83.7203C86.2854 7.6169 87.9242 9.11318 87.9242 11.322C87.8529 13.5308 86.1429 15.0983 83.5778 15.1695ZM54.0085 0.919273H61.9887V21.5109C61.9887 30.4886 56.4311 35.9037 47.0971 35.9037C37.7632 35.9037 32.2056 30.5598 32.2056 21.5109V0.919273H40.1858V21.0122C40.1858 25.8572 42.7508 28.636 47.0971 28.636C51.5147 28.636 54.0798 25.8572 54.0798 21.0122V0.919273H54.0085ZM142.289 28.2085H160.743V35.0487H134.38V0.848022H159.888V7.40315H142.36V14.2433H157.751V20.9409H142.36V28.2085H142.289ZM21.6604 16.0958C24.083 14.5995 25.5792 11.9632 25.5792 9.11318C25.5792 4.62434 21.9454 0.919274 17.3853 0.848022H0V35.0487H18.8816C24.2255 35.0487 28.5005 30.7023 28.5005 25.3585C28.5005 21.5822 26.2917 17.6633 21.6604 16.0958ZM7.83765 7.26064H14.2503C16.1741 7.26064 17.8128 8.89942 17.8128 10.8232C17.8128 12.8182 16.2453 14.3858 14.2503 14.3858H7.83765V7.26064ZM16.6016 28.636H7.83765V20.6559H16.5303C19.3804 20.6559 20.7341 22.9359 20.7341 24.5747C20.7341 26.641 19.3091 28.636 16.6016 28.636ZM193.946 11.322C193.946 5.55061 189.244 0.848022 183.472 0.848022H166.016V35.0487H173.782V21.7959H179.981L187.534 35.0487H196.155L187.961 20.7271C191.595 19.0171 193.946 15.312 193.946 11.322ZM181.833 15.1695H173.64V7.47439H181.976C184.541 7.6169 186.18 9.11318 186.18 11.322C186.18 13.5308 184.398 15.0983 181.833 15.1695ZM123.194 16.0958C125.616 14.5995 127.112 11.9632 127.112 9.11318C127.112 4.62434 123.479 0.919274 118.919 0.848022H101.533V35.0487H120.415C125.759 35.0487 130.034 30.7023 130.034 25.3585C130.034 21.5822 127.754 17.6633 123.194 16.0958ZM109.371 7.26064H115.783C117.707 7.26064 119.346 8.89942 119.346 10.8232C119.346 12.8182 117.778 14.3858 115.783 14.3858H109.371V7.26064ZM118.063 28.636H109.371V20.6559H118.063C120.914 20.6559 122.267 22.9359 122.267 24.5747C122.267 26.641 120.842 28.636 118.063 28.636ZM263.345 0.848022L249.736 21.0834V34.9774H241.328V21.0834L227.791 0.848022H237.766L245.603 12.6045L253.441 0.848022H263.345ZM227.719 11.322C227.719 5.55061 223.017 0.848022 217.245 0.848022H199.789V35.0487H207.555V21.7959H213.754L221.307 35.0487H229.999L221.805 20.7271C225.439 19.0171 227.719 15.312 227.719 11.322ZM215.607 15.1695H207.413V7.47439H215.749C218.314 7.6169 219.953 9.11318 219.953 11.322C219.953 13.5308 218.243 15.0983 215.607 15.1695Z"/></symbol><symbol viewBox="0 0 205 37" id="dunkin" xmlns="http://www.w3.org/2000/svg"><path d="M103.971 5.15973C104.089 5.80661 104.089 6.45349 104.089 7.10036C104.089 15.0393 104.089 23.0371 104.089 30.9761C104.089 33.446 103.207 35.3866 100.913 36.3863C98.4432 37.4448 96.0909 37.0332 94.0914 35.2102C92.8565 34.0928 91.9156 32.6815 90.857 31.3289C88.0931 27.8005 85.0939 24.3897 82.7417 20.5084C82.8005 20.4496 82.7417 20.4496 82.6828 20.3908C82.5652 20.5672 82.624 20.8024 82.624 20.9788C82.624 24.0956 82.624 27.1536 82.624 30.2116C82.624 31.0937 82.5064 31.917 82.2712 32.7403C81.5067 35.3866 79.272 36.9744 76.5081 36.798C73.0973 36.5627 71.1566 34.5045 70.9214 30.9173C70.8626 30.5644 70.8626 30.2116 70.8626 29.8587C70.8626 21.9198 70.8626 13.9808 70.8626 6.04183C70.8626 3.57193 71.8035 1.6313 74.1558 0.631579C76.5669 -0.368143 78.8604 -0.0152998 80.8598 1.80772C81.9184 2.74864 82.6828 4.04239 83.5649 5.21854C86.2113 8.80577 89.034 12.3342 91.5039 16.0979C91.7391 16.5095 91.9744 16.8623 92.386 17.2152C92.386 17.0388 92.386 16.8035 92.386 16.6271C92.386 13.3339 92.386 10.0407 92.386 6.74753C92.386 5.39496 92.6213 4.04239 93.3269 2.86625C94.6207 0.690387 96.6201 -0.0152981 98.9724 0.21993C101.736 0.455159 103.618 2.33699 103.971 5.15973ZM189.829 4.1012C189.241 2.10176 187.948 0.690387 185.831 0.278737C183.596 -0.132913 181.538 0.161122 179.95 2.04295C178.891 3.33671 178.538 4.8657 178.538 6.45349C178.538 9.8055 178.538 13.2163 178.538 16.5683C178.538 16.8035 178.538 16.98 178.538 17.3916C178.127 16.6859 177.833 16.2155 177.48 15.6862C174.422 11.2169 171.129 6.98275 167.894 2.63102C167.483 2.10176 166.953 1.6313 166.365 1.21965C164.307 -0.132914 162.19 -0.250526 160.014 0.749196C158.074 1.69011 157.074 3.33671 157.074 5.45377C157.015 13.8044 157.074 22.2138 157.074 30.5644C157.074 30.7408 157.133 30.9761 157.133 31.1525C157.368 34.5045 159.367 36.6215 162.661 36.8568C164.954 37.0332 167.071 35.8571 168.071 33.8576C168.482 32.9755 168.776 32.0934 168.776 31.1525C168.776 27.7417 168.835 24.4485 168.835 21.0965C168.835 20.92 168.835 20.6848 168.835 20.4496C168.894 20.4496 168.894 20.4496 168.835 20.4496C169.188 21.0377 169.482 21.5669 169.894 22.0962C172.893 26.3891 176.304 30.3292 179.479 34.4457C179.715 34.7397 180.067 35.0926 180.362 35.3278C182.361 36.9744 184.654 37.2684 187.007 36.2687C189.3 35.269 190.182 33.3283 190.182 30.9173C190.182 22.9783 190.182 14.9805 190.182 6.98275C190.182 6.04184 190.123 5.04211 189.829 4.1012ZM31.8147 11.9225C34.1669 18.4501 33.4025 24.6837 28.7567 30.1528C25.934 33.5048 22.1115 35.269 17.8186 35.8571C13.8785 36.4451 9.8796 36.0335 5.88072 36.0923C5.70429 36.0923 5.46907 36.0335 5.29264 35.9747C2.17587 35.4454 0 32.8579 0 29.7411C0 22.2138 0 14.6865 0 7.21798C0 3.68955 2.70513 0.866809 6.29236 0.808002C7.88016 0.808002 9.46795 0.808002 11.291 0.808002C13.3492 0.866809 15.7015 0.63158 18.0538 1.10204C24.5226 2.33699 29.5212 5.57138 31.8147 11.9225ZM21.2882 18.509C21.347 15.2158 19.1711 12.6282 15.8779 12.2166C14.643 12.0402 13.4668 12.1578 12.2319 12.099C11.7614 12.0402 11.6438 12.2166 11.6438 12.687C11.7026 14.6277 11.7026 16.5683 11.7026 18.509C11.7026 20.4496 11.7026 22.3902 11.7026 24.3309C11.7026 24.6249 11.6438 24.8601 12.1143 24.8601C13.3492 24.8013 14.5842 24.9189 15.8191 24.7425C19.0535 24.3309 21.2294 21.9198 21.2882 18.509ZM129.435 18.7442C129.14 18.3913 129.14 18.2149 129.435 17.8621C131.493 15.5098 133.551 13.1575 135.55 10.7464C136.55 9.51145 137.197 8.1589 137.315 6.5711C137.55 3.10148 134.257 -0.0741062 130.787 0.278737C128.788 0.455158 127.376 1.5725 126.2 3.10148C124.142 5.80661 121.966 8.39412 119.849 11.0992C119.849 9.33504 119.908 7.57083 119.908 5.86542C119.79 2.45461 117.379 0.161125 114.086 0.102318C110.734 0.102318 108.264 2.45461 108.205 5.86542C108.146 14.2748 108.146 22.6843 108.205 31.0937C108.205 34.4457 110.675 36.8568 114.027 36.8568C117.32 36.9156 119.731 34.5045 119.849 31.0937C119.967 29.3883 119.908 27.7417 119.908 26.0363C119.908 25.8598 119.79 25.6834 120.025 25.5658C120.143 25.7422 120.202 25.8598 120.319 25.9775C122.554 28.859 124.906 31.6229 127.2 34.4457C128.023 35.4454 128.964 36.1511 130.199 36.5039C133.727 37.5625 137.609 34.5633 137.726 30.7408C137.785 28.9178 137.138 27.4476 135.962 26.0951C133.786 23.684 131.61 21.1553 129.435 18.7442ZM66.9225 15.0981C66.9225 11.7461 66.9225 8.9822 66.8637 6.15945C66.8637 5.63019 66.8637 5.15973 66.7461 4.68927C66.0992 1.69011 63.4529 -0.191718 60.3949 0.102318C57.2782 0.455161 55.1611 2.80745 55.1611 5.98303C55.1611 10.8052 55.1611 15.6862 55.1611 20.5084C55.1611 20.8612 55.1611 21.2141 55.1023 21.5669C54.8083 24.3309 52.1619 26.0363 49.7508 24.8013C48.2219 24.0368 47.6338 22.6843 47.6338 21.0377C47.6338 16.0979 47.6338 11.0993 47.6338 6.15945C47.6338 2.57222 45.2227 0.102314 41.8119 0.0435072C38.4011 0.0435072 35.99 2.51341 35.9312 6.04183C35.8724 11.2757 35.9312 16.5095 35.9312 21.8021C35.99 22.5666 35.99 23.2723 36.1076 23.978C36.9309 29.5059 39.8124 33.5048 45.0463 35.6218C47.9866 36.8568 51.0446 37.0332 54.1614 36.6215C61.2182 35.7394 66.4521 30.1528 66.8637 23.0959C67.0401 20.2732 66.8637 17.3916 66.9225 15.0981ZM151.193 1.5725C149.253 -0.132911 147.018 -0.426949 144.666 0.572772C142.431 1.57249 141.431 3.45433 141.372 5.86542C141.314 10.0407 141.372 14.216 141.372 18.3913C141.372 22.6843 141.372 26.8596 141.314 31.0937C141.314 34.3869 143.725 36.6804 147.077 36.798C150.252 36.9156 152.899 34.5045 152.957 31.2701C153.016 22.6843 153.016 14.0984 152.957 5.51257C152.957 3.98359 152.369 2.57222 151.193 1.5725Z"/><path d="M193.828 8.57051C193.77 7.15914 193.828 5.74777 194.122 4.3364C194.769 1.39604 197.239 -0.25056 200.238 0.219897C203.12 0.690354 205.002 3.04264 204.708 5.983C204.473 8.39409 203.767 10.7464 202.826 12.981C202.238 14.2748 201.415 15.3333 200.003 15.8038C197.71 16.5683 195.299 15.4509 194.475 13.1575C193.887 11.6873 193.828 10.0995 193.828 8.57051Z"/></symbol><symbol viewBox="0 0 145 34" id="exotic" xmlns="http://www.w3.org/2000/svg"><path fill-rule="evenodd" clip-rule="evenodd" d="M61.7805 0.772095C52.862 0.772095 45.6319 8.00219 45.6319 16.9208C45.6319 25.8393 52.862 33.0694 61.7805 33.0694C70.6991 33.0694 77.9292 25.8393 77.9292 16.9208C77.9725 8.00219 70.7424 0.772095 61.7805 0.772095ZM61.7805 27.1814C56.109 27.1814 51.5199 22.5923 51.5199 16.9208C51.5199 11.2492 56.109 6.66008 61.7805 6.66008C67.452 6.66008 72.0412 11.2492 72.0412 16.9208C72.0412 22.5923 67.452 27.1814 61.7805 27.1814ZM103.04 6.66008H97.5847V30.0388C97.5847 31.684 96.2858 32.9828 94.6407 32.9828C92.9955 32.9828 91.6967 31.684 91.6967 30.0388V6.66008H87.4539V30.0388C87.4539 31.684 86.155 32.9828 84.5099 32.9828C82.8647 32.9828 81.5659 31.684 81.5659 30.0388V6.66008H76.6737C75.0285 6.66008 73.7297 5.36126 73.7297 3.71609C73.7297 2.07092 75.0285 0.772095 76.6737 0.772095H102.996C104.642 0.772095 105.94 2.07092 105.94 3.71609C105.984 5.31797 104.642 6.66008 103.04 6.66008ZM144.299 3.71609V30.0388C144.299 31.684 143 32.9828 141.355 32.9828C139.71 32.9828 138.411 31.684 138.411 30.0388V12.9377V13.1542L125.769 31.2944C124.86 32.6365 123.128 33.0694 122.176 33.1127C114.036 33.1127 107.326 27.0948 106.2 19.3019V30.0388C106.2 31.684 104.901 32.9828 103.256 32.9828C101.611 32.9828 100.312 31.684 100.312 30.0388V11.9852C100.312 10.3401 101.611 9.04125 103.256 9.04125C104.901 9.04125 106.2 10.3401 106.2 11.9852V14.5829C107.326 6.74666 114.036 0.772095 122.176 0.772095C125.033 0.772095 127.761 1.55139 130.098 2.85021C130.878 3.36974 131.441 4.27891 131.441 5.31796C131.441 6.96314 130.142 8.26196 128.497 8.26196C127.934 8.26196 127.458 8.13207 127.025 7.87231C125.596 7.09301 123.994 6.70337 122.219 6.70337C116.547 6.70337 111.958 11.2925 111.958 16.964C111.958 22.3325 116.114 26.7485 121.396 27.1814L138.671 2.59044C139.147 1.55139 140.143 0.815388 141.355 0.815388C143 0.772094 144.299 2.07092 144.299 3.71609ZM48.6624 28.1772C49.7015 29.4327 49.485 31.2944 48.2295 32.3334C46.974 33.3725 45.1123 33.156 44.0733 31.9005L35.5877 21.38L27.102 31.9005C26.063 33.156 24.2446 33.3725 22.9458 32.3334C21.6903 31.2944 21.4738 29.476 22.5129 28.1772L31.8211 16.7043L28.0545 12.0718V14.7561C28.0545 20.341 23.5519 24.8436 17.967 24.8436C12.3821 24.8436 7.87951 20.341 7.87951 14.7561V3.71609C7.87951 2.07092 9.17833 0.772095 10.8235 0.772095C12.4687 0.772095 13.7675 2.07092 13.7675 3.71609V14.7561C13.7675 17.0939 15.6291 18.9556 17.967 18.9556C20.3049 18.9556 22.1665 17.0506 22.1665 14.7561V3.71609C22.1665 2.07092 23.4653 0.772095 25.1105 0.772095C26.1496 0.772095 27.0587 1.33492 27.5783 2.1575L35.5877 12.0285L43.7702 1.94103C44.8093 0.685505 46.6276 0.469035 47.9264 1.50809C49.182 2.54715 49.3984 4.3655 48.3594 5.66432L39.3975 16.7476L48.6624 28.1772ZM20.911 29.9522C20.911 31.5974 19.6122 32.8962 17.967 32.8962H3.5934C3.37693 32.9395 3.16046 32.9828 2.94399 32.9828C1.29882 32.9828 0 31.684 0 30.0388V3.71609C0 2.07092 1.29882 0.772095 2.94399 0.772095C4.58916 0.772095 5.88798 2.07092 5.88798 3.71609V27.0083H17.967C19.6122 27.0083 20.911 28.3071 20.911 29.9522Z"/></symbol><symbol viewBox="0 0 10 20" id="facebook" xmlns="http://www.w3.org/2000/svg"><path d="M2.13466 3.82402V6.54271H0V9.86687H2.13466V19.7463H6.51632V9.86786H9.45757C9.45757 9.86786 9.73314 8.27404 9.86669 6.53083H6.53434V4.25735C6.53434 3.918 7.0113 3.46093 7.48402 3.46093H9.87305V0.000244141H6.62549C2.02549 0.000244141 2.13466 3.32737 2.13466 3.82402Z"/></symbol><symbol viewBox="-1 0 68 31" id="footer-logo" xmlns="http://www.w3.org/2000/svg"><path fill-rule="evenodd" clip-rule="evenodd" d="M58.3315 26.6858C57.6004 27.5333 56.1163 27.4062 55.8725 26.1669C55.7561 25.5523 55.9254 24.8109 56.1905 24.2917C56.7841 23.1582 57.8546 22.2261 59.0736 21.9189C59.0736 22.6181 59.0736 23.5397 59.0524 24.2494C59.031 25.0333 58.8616 26.0608 58.3315 26.6858ZM46.5349 9.93804C47.2133 9.98036 47.7539 10.7218 47.5737 11.9824C47.3511 13.4762 46.1109 15.0756 44.7014 15.4358C44.4786 14.9062 44.3728 13.8256 44.4998 12.7663C44.7331 10.8277 45.7294 9.89555 46.5349 9.93804ZM20.1117 17.1625C19.0624 15.7642 19.1047 14.0693 19.4335 12.4591C20.4614 14.7684 23.2067 15.1711 24.9025 14.832C24.68 16.6117 23.7469 18.1689 22.1362 18.1689C21.2352 18.1794 20.5779 17.7875 20.1117 17.1625ZM23.8214 10.637C24.3385 11.1647 24.6874 11.9339 24.8471 12.7877C24.8481 12.7876 24.8495 12.7981 24.8495 12.7981C24.8489 12.7946 24.8479 12.7912 24.8471 12.7877C23.6609 12.9567 22.5171 12.7342 21.6804 12.0883C21.0763 11.6116 20.9172 10.8595 21.1716 10.404C21.5424 9.74732 22.6555 9.46123 23.8214 10.637ZM7.66859 1.95062C8.39973 1.09272 9.88366 1.23022 10.1169 2.46975C10.2333 3.0735 10.0744 3.81501 9.80959 4.33405C9.21576 5.46748 8.14531 6.39963 6.92636 6.71747C6.92636 6.00789 6.91571 5.09676 6.94783 4.38709C6.96885 3.60318 7.13855 2.56502 7.66859 1.95062ZM61.7763 20.3193C61.7868 16.6329 61.7763 12.9464 61.7763 9.25995C61.7763 8.349 59.1584 8.29586 59.0736 9.21764C59.0736 9.58835 59.0736 9.96971 59.0629 10.3404C59.0207 12.3638 58.0562 16.1455 56.4557 17.5226C56.0211 17.8935 55.6288 17.9146 55.3535 17.7133C55.1095 17.5332 55.0458 17.0778 55.0458 16.6858V16.1774C55.0458 13.8999 55.0565 11.5481 55.0458 9.27051C55.0458 8.35947 52.4279 8.29586 52.3431 9.21764C52.3431 11.3362 52.3431 13.3914 52.3538 15.4888C50.6261 18.243 46.6303 19.5354 44.9769 16.2726C46.005 16.6646 47.0966 16.4739 47.8386 16.082C49.1212 15.404 50.0962 14.2812 50.2869 12.5015C50.4671 7.28955 43.5779 6.57997 42.0409 11.8871C41.7866 12.7663 41.6489 13.7091 41.6807 14.6307C41.7123 15.5099 41.8926 16.3256 42.1999 17.046C41.638 17.5968 40.9916 17.9782 40.3452 17.957C39.4971 17.9252 39.5821 16.8766 39.5821 16.2726V12.3002C39.5821 11.8235 39.5821 11.3468 39.5395 10.8808C39.402 9.49308 38.3419 8.39132 36.8581 8.29587C34.7487 8.2642 33.265 10.2239 32.5337 12.3744C32.5232 11.1774 32.5337 10.4675 32.5337 9.25995C32.5232 8.35947 30.096 8.29587 29.8204 9.24931C29.4706 10.457 28.3258 11.3998 27.2553 11.9611C26.9269 11.1667 26.5136 10.4359 25.9412 9.81092C23.5881 7.2578 20.186 7.72405 18.1931 9.83194C16.6139 11.5058 16.1372 14.5248 16.985 16.6434C16.3597 17.385 15.5012 17.9888 14.7381 17.957C14.3564 17.9358 14.1444 17.7133 14.049 17.3638C13.9535 17.0247 13.9749 16.6223 13.9749 16.2726C13.9749 14.9485 13.9642 13.6243 13.9749 12.3002C13.9749 11.8235 13.9749 11.3468 13.9326 10.8808C13.7947 9.49308 12.9785 8.38067 11.4312 8.28549C8.77071 8.16875 7.70026 10.7431 6.91571 12.8616V8.33836C7.4776 8.24299 8.01828 8.10523 8.55861 7.94644C14.42 6.26204 13.2858 0.107344 8.91921 0.00151531C5.97265 -0.0619997 4.22366 1.87646 4.24504 4.82132V6.72812C3.18506 6.56933 2.39004 5.19222 1.94508 4.30238C1.8813 4.16461 1.81769 4.02685 1.75427 3.88908C1.70131 3.75141 1.5529 3.67743 1.41486 3.71974C1.29848 3.75141 1.18192 3.7939 1.06517 3.83621C0.641413 4.02694 0.291364 4.35534 0.12202 4.78966C-0.185267 5.56293 0.12202 6.38925 0.662346 6.9718C1.5529 7.90404 2.97322 8.243 4.22366 8.30651C4.21302 11.9824 4.22366 15.6477 4.22366 19.3235C4.26606 19.8426 4.97636 19.9804 5.38965 19.9909C5.82433 20.0015 6.76748 19.8637 6.77822 19.2706L6.80998 18.815C6.99014 17.1838 8.55861 10.6583 10.5406 10.6476C11.0284 10.6476 11.2722 10.9655 11.2722 11.4422V17.2579C11.2722 19.0587 12.2896 20.2663 14.1339 20.2663C15.5648 20.2769 16.8576 19.2387 17.6314 17.9465C17.7373 18.0842 17.8222 18.2324 17.9388 18.3595C18.9456 19.5354 20.4296 20.2876 22.1255 20.2982C25.8243 20.2451 27.7215 17.0672 27.584 13.9422C28.4425 13.4655 29.2163 12.851 29.8096 12.0883V19.3235C29.8521 19.8426 30.5941 19.9804 31.0076 19.9909C31.4419 20.0015 32.3854 19.8637 32.3854 19.2706L32.4277 18.815L32.5548 17.6074C32.7458 15.9231 34.007 10.6583 36.1586 10.6476C36.6353 10.6476 36.8794 10.9655 36.8794 11.4422V17.2579C36.8794 19.0587 37.8969 20.2663 39.7515 20.2663C41.0341 20.2769 42.1999 19.4401 42.9843 18.3384C44.0229 19.6201 45.613 20.3722 47.5205 20.3722C49.7572 20.3722 51.3786 19.3871 52.4598 17.7981C52.7035 19.1647 53.4348 20.2451 55.2262 20.2663C57.0808 20.2769 58.4906 17.6922 59.0736 16.1349V20.2982C58.5222 20.3934 57.9819 20.5312 57.4415 20.69C51.5801 22.3638 52.7035 28.529 57.0703 28.6244C60.0274 28.6986 61.7656 26.76 61.7551 23.8151C61.7551 23.3173 61.7445 22.385 61.7551 21.8977C62.8044 22.0566 63.6099 23.4444 64.0445 24.3342C64.1186 24.4719 64.1823 24.6095 64.2354 24.7472C64.2989 24.885 64.4365 24.9485 64.585 24.9167C64.7016 24.885 64.8182 24.8427 64.9241 24.7896C65.3588 24.599 65.7086 24.2813 65.8782 23.8363C66.1855 23.063 65.8782 22.2473 65.3269 21.6646C64.4474 20.7219 63.0162 20.3934 61.7763 20.3193Z"/></symbol><symbol viewBox="0 0 28 19" id="google-plus" xmlns="http://www.w3.org/2000/svg"><path d="M24.4899 8.06299V4.44288H22.793V8.06299H19.3991V9.87305H22.793V13.4932H24.4899V9.87305H27.8838V8.06299H24.4899ZM9.21756 8.06299V11.6831H14.0178C13.6657 12.7411 13.0153 13.657 12.1559 14.3051C11.2965 14.9532 10.2701 15.3019 9.21756 15.3032C7.86795 15.3013 6.57413 14.7286 5.61981 13.7107C4.66549 12.6927 4.12857 11.3126 4.12677 9.87305C4.12857 8.43347 4.66549 7.05339 5.61981 6.03545C6.57413 5.01751 7.86795 4.44479 9.21756 4.44288C10.4339 4.44288 11.6055 4.9077 12.515 5.75336L14.7428 3.02379C13.2106 1.60261 11.248 0.820801 9.21756 0.822758C6.96807 0.82544 4.81142 1.77981 3.22079 3.47649C1.63015 5.17317 0.735425 7.47359 0.73291 9.87305C0.735425 12.2725 1.63015 14.5729 3.22079 16.2696C4.81142 17.9663 6.96807 18.9207 9.21756 18.9233C11.4671 18.9207 13.6237 17.9663 15.2143 16.2696C16.805 14.5729 17.6997 12.2725 17.7022 9.87305V8.06299H9.21756Z"/></symbol><symbol viewBox="0 0 1409 611" id="honey-bg" xmlns="http://www.w3.org/2000/svg"><path opacity="0.9" fill-rule="evenodd" clip-rule="evenodd" d="M1245.02 569.578C1229.41 587.668 1197.74 584.954 1192.53 558.502C1190.05 545.384 1193.67 529.559 1199.32 518.479C1211.99 494.286 1234.84 474.39 1260.86 467.833C1260.86 482.757 1260.86 502.427 1260.41 517.576C1259.95 534.308 1256.33 556.237 1245.02 569.578ZM993.234 212.116C1007.71 213.019 1019.25 228.844 1015.41 255.751C1010.66 287.634 984.186 321.772 954.1 329.459C949.345 318.155 947.086 295.092 949.798 272.483C954.777 231.105 976.042 211.209 993.234 212.116V212.116ZM429.262 366.314C406.865 336.468 407.768 300.293 414.785 265.926C436.726 315.215 495.321 323.809 531.515 316.572C526.766 354.558 506.851 387.794 472.471 387.794C453.242 388.019 439.212 379.654 429.262 366.314ZM508.44 227.034C519.478 238.298 526.925 254.716 530.333 272.939C530.354 272.937 530.384 273.161 530.384 273.161C530.371 273.086 530.35 273.014 530.333 272.939C505.015 276.546 480.601 271.798 462.743 258.01C449.851 247.837 446.454 231.785 451.884 222.062C459.799 208.045 483.557 201.939 508.44 227.034ZM163.677 41.6338C179.283 23.3229 210.955 26.2576 215.933 52.7139C218.419 65.6003 215.026 81.4271 209.374 92.5053C196.7 116.697 173.852 136.593 147.835 143.377C147.835 128.232 147.608 108.785 148.294 93.6376C148.742 76.9057 152.364 54.7474 163.677 41.6338V41.6338ZM1318.55 433.692C1318.77 355.01 1318.55 276.327 1318.55 197.643C1318.55 178.2 1262.67 177.066 1260.86 196.74C1260.86 204.652 1260.86 212.792 1260.63 220.705C1259.73 263.891 1239.14 344.608 1204.98 374.001C1195.71 381.917 1187.33 382.368 1181.46 378.07C1176.25 374.226 1174.89 364.507 1174.89 356.14V345.288C1174.89 296.677 1175.12 246.481 1174.89 197.868C1174.89 178.423 1119.01 177.066 1117.2 196.74C1117.2 241.958 1117.2 285.824 1117.43 330.591C1080.56 389.377 995.271 416.962 959.98 347.321C981.925 355.688 1005.22 351.617 1021.06 343.252C1048.44 328.781 1069.25 304.816 1073.32 266.831C1077.16 155.587 930.122 140.442 897.315 253.718C891.888 272.483 888.948 292.606 889.628 312.276C890.302 331.042 894.149 348.451 900.71 363.828C888.717 375.584 874.92 383.723 861.123 383.273C843.02 382.593 844.836 360.211 844.836 347.321V262.533C844.836 252.36 844.836 242.185 843.927 232.239C840.99 202.619 818.364 179.103 786.695 177.066C741.672 176.39 710.003 218.219 694.394 264.118C694.171 238.569 694.394 223.418 694.394 197.643C694.171 178.423 642.365 177.066 636.483 197.416C629.017 223.193 604.583 243.315 581.733 255.297C574.724 238.342 565.903 222.742 553.686 209.403C503.46 154.909 430.847 164.861 388.312 209.852C354.605 245.578 344.43 310.016 362.525 355.234C349.179 371.064 330.857 383.951 314.568 383.273C306.42 382.82 301.897 378.07 299.86 370.61C297.822 363.373 298.279 354.785 298.279 347.321C298.279 319.058 298.05 290.796 298.279 262.533C298.279 252.36 298.279 242.185 297.376 232.239C294.431 202.619 277.012 178.876 243.986 176.844C187.201 174.353 164.353 229.299 147.608 274.517V177.973C159.601 175.937 171.141 172.997 182.674 169.608C307.778 133.656 283.571 2.29113 190.37 0.0323427C127.479 -1.32331 90.1492 40.051 90.6056 102.906V143.604C67.9814 140.215 51.0128 110.822 41.5155 91.8294C40.1542 88.889 38.7966 85.9485 37.4429 83.0081C36.3125 80.0696 33.1448 78.4905 30.1987 79.3936C27.7146 80.0696 25.2267 80.9765 22.7349 81.8796C13.6902 85.9504 6.21884 92.9597 2.60439 102.23C-3.95432 118.734 2.60439 136.371 14.137 148.805C33.1448 168.703 63.46 175.937 90.1492 177.293C89.922 255.751 90.1492 333.982 90.1492 412.438C91.0543 423.519 106.215 426.459 115.036 426.682C124.314 426.91 144.444 423.969 144.673 411.31L145.351 401.586C149.197 366.768 182.674 227.489 224.978 227.261C235.388 227.261 240.593 234.045 240.593 244.22V368.351C240.593 406.787 262.308 432.561 301.672 432.561C332.212 432.789 359.807 410.628 376.323 383.047C378.583 385.986 380.395 389.15 382.883 391.863C404.373 416.962 436.046 433.016 472.244 433.241C551.191 432.109 591.685 364.28 588.75 297.58C607.073 287.407 623.589 274.289 636.252 258.01V412.438C637.159 423.519 652.997 426.459 661.822 426.682C671.092 426.91 691.23 423.969 691.23 411.31L692.133 401.586L694.845 375.811C698.921 339.861 725.841 227.489 771.764 227.261C781.939 227.261 787.15 234.045 787.15 244.22V368.351C787.15 406.787 808.867 432.561 848.45 432.561C875.827 432.789 900.71 414.926 917.451 391.412C939.619 418.77 973.558 434.822 1014.27 434.822C1062.01 434.822 1096.62 413.796 1119.69 379.88C1124.9 409.049 1140.51 432.109 1178.74 432.561C1218.32 432.789 1248.42 377.621 1260.86 344.381V433.241C1249.09 435.275 1237.56 438.215 1226.02 441.604C1100.92 477.33 1124.9 608.919 1218.1 610.956C1281.22 612.539 1318.32 571.161 1318.09 508.306C1318.09 497.681 1317.87 477.783 1318.09 467.381C1340.49 470.774 1357.68 500.394 1366.96 519.386C1368.54 522.325 1369.9 525.262 1371.03 528.202C1372.39 531.142 1375.32 532.498 1378.49 531.818C1380.98 531.142 1383.47 530.239 1385.73 529.105C1395.01 525.038 1402.48 518.256 1406.09 508.759C1412.66 492.254 1406.09 474.844 1394.33 462.407C1375.56 442.286 1345.01 435.275 1318.55 433.692V433.692Z"/></symbol><symbol viewBox="0 0 93 40" id="logo" xmlns="http://www.w3.org/2000/svg"><path fill-rule="evenodd" clip-rule="evenodd" d="M81.507 37.2883C80.4854 38.4725 78.4116 38.2949 78.071 36.5631C77.9084 35.7044 78.145 34.6684 78.5154 33.943C79.3448 32.3591 80.8406 31.0566 82.544 30.6274C82.544 31.6044 82.544 32.8921 82.5144 33.8839C82.4844 34.9793 82.2478 36.4149 81.507 37.2883ZM65.0235 13.8865C65.9715 13.9456 66.7269 14.9816 66.475 16.7431C66.164 18.8304 64.4311 21.0653 62.4615 21.5685C62.1503 20.8285 62.0024 19.3186 62.1799 17.8385C62.5059 15.1296 63.898 13.8271 65.0235 13.8865ZM28.1023 23.9812C26.636 22.0274 26.6951 19.6591 27.1545 17.4092C28.5909 20.636 32.4269 21.1986 34.7964 20.7249C34.4855 23.2116 33.1818 25.3875 30.931 25.3875C29.6721 25.4022 28.7536 24.8546 28.1023 23.9812ZM33.2858 14.8631C34.0084 15.6005 34.4959 16.6754 34.719 17.8684L34.7224 17.8829C34.7215 17.878 34.7201 17.8732 34.719 17.8684C33.0615 18.1045 31.4633 17.7936 30.2941 16.891C29.4501 16.225 29.2278 15.1741 29.5833 14.5376C30.1014 13.62 31.6568 13.2202 33.2858 14.8631ZM10.7154 2.72562C11.737 1.52687 13.8105 1.71899 14.1364 3.45099C14.2991 4.29462 14.077 5.33074 13.707 6.05599C12.8773 7.63974 11.3815 8.94224 9.67825 9.38637C9.67825 8.39487 9.66338 7.12174 9.70825 6.13012C9.73763 5.03474 9.97475 3.58412 10.7154 2.72562ZM86.3205 28.3923C86.3351 23.2413 86.3205 18.0901 86.3205 12.939C86.3205 11.6661 82.6624 11.5919 82.544 12.8799C82.544 13.3979 82.544 13.9307 82.529 14.4487C82.47 17.276 81.1223 22.5603 78.8859 24.4845C78.2786 25.0028 77.7305 25.0322 77.3458 24.7509C77.0049 24.4992 76.9159 23.863 76.9159 23.3153V22.6047C76.9159 19.4224 76.9309 16.1362 76.9159 12.9537C76.9159 11.6807 73.2579 11.5919 73.1394 12.8799C73.1394 15.8401 73.1394 18.7119 73.1544 21.6426C70.7401 25.4911 65.1569 27.297 62.8465 22.7379C64.2831 23.2856 65.8084 23.0191 66.8453 22.4715C68.6374 21.5241 69.9998 19.9552 70.2663 17.4685C70.518 10.1857 60.8918 9.19424 58.744 16.61C58.3888 17.8385 58.1963 19.1559 58.2408 20.4436C58.2849 21.6721 58.5368 22.8119 58.9663 23.8185C58.1811 24.5881 57.2779 25.121 56.3746 25.0915C55.1895 25.047 55.3084 23.5818 55.3084 22.7379V17.1871C55.3084 16.5211 55.3084 15.855 55.2489 15.2039C55.0566 13.2647 53.5754 11.7252 51.5021 11.5919C48.5546 11.5476 46.4814 14.286 45.4595 17.2909C45.4449 15.6182 45.4595 14.6264 45.4595 12.939C45.4449 11.6807 42.0534 11.5919 41.6683 12.9241C41.1795 14.6116 39.5799 15.929 38.084 16.7134C37.6251 15.6034 37.0476 14.5821 36.2479 13.7089C32.9598 10.1414 28.206 10.7929 25.4214 13.7382C23.2148 16.0771 22.5486 20.2956 23.7333 23.2559C22.8595 24.2922 21.66 25.1359 20.5936 25.0915C20.0603 25.0619 19.7641 24.7509 19.6308 24.2625C19.4974 23.7887 19.5273 23.2265 19.5273 22.7379C19.5273 20.8876 19.5123 19.0374 19.5273 17.1871C19.5273 16.5211 19.5273 15.855 19.4681 15.2039C19.2754 13.2647 18.135 11.7104 15.9729 11.5774C12.2554 11.4142 10.7596 15.0114 9.66338 17.9716V11.6512C10.4485 11.518 11.204 11.3255 11.959 11.1036C20.1491 8.75 18.5644 0.149992 12.4629 0.00211736C8.34563 -0.0866327 5.90175 2.62199 5.93163 6.73687V9.40125C4.4505 9.17937 3.33963 7.25512 2.71788 6.01174C2.62875 5.81924 2.53988 5.62674 2.45125 5.43424C2.37725 5.24187 2.16988 5.13849 1.977 5.19762C1.81438 5.24187 1.6515 5.30124 1.48838 5.36037C0.89625 5.62687 0.407125 6.08574 0.1705 6.69262C-0.258875 7.77312 0.1705 8.92774 0.9255 9.74174C2.16988 11.0444 4.1545 11.518 5.90175 11.6067C5.88688 16.7431 5.90175 21.8646 5.90175 27.0009C5.961 27.7263 6.9535 27.9188 7.531 27.9334C8.13838 27.9483 9.45625 27.7558 9.47125 26.927L9.51563 26.2904C9.76738 24.011 11.959 14.8929 14.7285 14.878C15.41 14.878 15.7508 15.3221 15.7508 15.9882V24.1146C15.7508 26.6309 17.1724 28.3183 19.7494 28.3183C21.7488 28.3331 23.5553 26.8824 24.6365 25.0767C24.7845 25.2691 24.9031 25.4763 25.066 25.6539C26.4729 27.297 28.5464 28.348 30.9161 28.3628C36.0845 28.2886 38.7355 23.8481 38.5434 19.4815C39.7429 18.8155 40.8241 17.9567 41.6531 16.891V27.0009C41.7125 27.7263 42.7494 27.9188 43.3271 27.9334C43.934 27.9483 45.2524 27.7558 45.2524 26.927L45.3115 26.2904L45.489 24.603C45.7559 22.2495 47.5183 14.8929 50.5246 14.878C51.1908 14.878 51.5319 15.3221 51.5319 15.9882V24.1146C51.5319 26.6309 52.9536 28.3183 55.545 28.3183C57.3373 28.3331 58.9663 27.1638 60.0623 25.6244C61.5135 27.4154 63.7354 28.4663 66.4008 28.4663C69.526 28.4663 71.7916 27.0898 73.3024 24.8694C73.643 26.779 74.6649 28.2886 77.168 28.3183C79.7594 28.3331 81.7294 24.7215 82.544 22.5454V28.3628C81.7735 28.4959 81.0185 28.6884 80.2634 28.9103C72.0733 31.2491 73.643 39.8638 79.7448 39.9971C83.8768 40.1008 86.3055 37.3919 86.2909 33.277C86.2909 32.5814 86.276 31.2788 86.2909 30.5978C87.757 30.8199 88.8825 32.759 89.4899 34.0024C89.5934 34.1948 89.6824 34.387 89.7565 34.5795C89.8453 34.772 90.0376 34.8608 90.2451 34.8163C90.408 34.772 90.5709 34.7129 90.7189 34.6386C91.3263 34.3724 91.8151 33.9284 92.052 33.3066C92.4815 32.2261 92.052 31.0864 91.2818 30.2721C90.0528 28.9549 88.053 28.4959 86.3205 28.3923Z"/></symbol><symbol viewBox="0 0 229 38" id="miu" xmlns="http://www.w3.org/2000/svg"><path d="M50.5912 14.7452V34.1935C50.5912 35.6553 49.2565 36.7358 47.9854 36.7358H41.2483C39.9136 36.7358 38.8332 35.6553 38.8332 34.1935V14.9358C38.2612 11.5038 36.2274 10.7411 33.8122 10.9318C33.0495 8.77082 32.2868 6.92769 31.0157 5.1481C28.4099 2.60583 28.7912 3.49563 28.0285 2.60583C28.2192 2.60583 29.5539 1.52536 31.397 0.953351C32.8588 0.572011 35.6553 0.381337 37.562 0.572007C42.583 1.27113 44.2991 2.54226 45.7609 3.68628L47.2862 5.1481C50.7818 8.89795 50.5912 13.2834 50.5912 14.7452ZM65.1457 1.4618H58.5993C57.074 1.4618 55.9935 2.54226 55.9935 4.00407V34.13C55.9935 35.5918 57.1375 36.6722 58.5993 36.6722H65.1457C66.671 36.6722 67.7515 35.5918 67.7515 34.13V4.00407C67.7515 2.54226 66.6075 1.4618 65.1457 1.4618ZM102.39 1.4618H95.6529C94.1276 1.4618 93.0471 2.54226 93.0471 4.00407V24.7236C93.0471 27.0752 90.4413 27.4565 90.4413 27.4565V37.6256H94.0004C95.4623 37.4349 97.7503 37.0536 99.5935 35.7824C101.055 34.702 102.581 33.0495 103.725 31.2064C104.487 29.9352 104.678 28.8548 104.869 27.393V3.94051C104.805 2.54226 103.725 1.4618 102.39 1.4618ZM85.1025 25.1049V22.1813L84.9118 4.38541C84.9118 2.92361 83.7678 1.84314 82.4967 1.84314H75.7597C74.2979 1.84314 73.1538 2.92361 73.1538 4.38541V27.8379C73.3445 29.2997 73.5352 30.3801 74.425 31.6513C75.569 33.3037 76.8401 35.0833 78.5562 36.0367C80.3993 37.3078 82.4967 37.8798 83.9585 37.8798H87.5177V27.7108C87.5177 27.6472 85.1025 27.2659 85.1025 25.1049ZM16.0799 0.572007H15.3172C6.92769 0.572007 0.190672 7.30902 0.190672 15.1265L0 34.1935C0 35.6553 1.14403 36.7358 2.60583 36.7358H8.77083C10.2326 36.7358 11.3767 35.6553 11.3767 34.1935V14.9358C11.758 13.474 13.9825 11.6309 15.8256 11.6309C17.4781 11.6309 19.5755 13.474 20.1475 14.9358V34.0029C20.1475 35.4647 21.2915 36.5451 22.5626 36.5451H28.9183C30.253 36.5451 31.3335 35.4647 31.3335 34.0029L31.5242 15.4443C31.5877 7.43613 24.66 0.572007 16.0799 0.572007ZM170.459 4.76676L169.125 3.30494C167.663 2.22447 165.947 0.953355 160.735 0.0635606C159.083 -0.12711 156.286 0.254227 154.761 0.635568C152.918 1.20758 151.392 2.28805 151.202 2.28805C152.155 3.17784 151.583 2.28805 154.189 4.83032C155.651 6.67346 156.413 8.45304 156.985 10.614C159.591 10.4233 161.434 11.186 162.006 14.6181V33.8757C162.006 35.3376 163.277 36.418 164.612 36.418H171.349C172.684 36.418 173.764 35.3376 173.764 33.8757L173.955 14.4274C174.018 12.902 174.146 8.58016 170.459 4.76676ZM188.509 1.14401H181.772C180.438 1.14401 179.357 2.22448 179.357 3.68628V33.8122C179.357 35.274 180.501 36.3545 181.772 36.3545H188.509C189.844 36.3545 190.925 35.274 190.925 33.8122V3.68628C190.925 2.22448 189.844 1.14401 188.509 1.14401ZM225.626 1.14401H218.889C217.618 1.14401 216.474 2.22448 216.474 3.68628V21.6729C216.474 21.8635 216.474 22.7533 216.284 24.4058C216.284 26.7574 213.868 27.1387 213.868 27.1387V37.3078H217.428C218.889 37.1171 220.987 36.6087 222.83 35.4647C224.482 34.3842 226.008 32.7317 227.088 30.9521C227.851 29.681 228.042 28.6005 228.232 27.1387V3.68628C228.232 2.22448 227.088 1.14401 225.626 1.14401ZM208.276 24.7236V3.81341C208.276 2.54227 207.131 1.4618 205.67 1.4618H199.123C197.598 1.4618 196.518 2.54227 196.518 3.81341V27.4565C196.708 28.9183 196.899 29.9988 197.662 31.0793C198.806 32.9224 200.267 34.702 201.92 35.5918C203.763 36.8629 205.86 37.4349 207.322 37.4349H210.881V27.2658C210.881 27.2658 208.466 26.8845 208.276 24.7236ZM139.507 0L138.744 0.190663C130.164 0.190663 123.491 6.92768 123.491 14.7452V33.8122C123.491 35.274 124.635 36.3545 126.097 36.3545H132.262C133.723 36.3545 134.867 35.274 134.867 33.8122L134.677 14.9358L134.867 14.5545C135.249 13.0927 137.473 11.3131 139.126 11.3131C140.778 11.3131 143.066 12.9656 143.384 14.5545L143.575 14.7452L143.384 33.6215C143.384 35.0833 144.528 36.1638 145.99 36.1638H152.155C153.68 36.1638 154.761 35.0833 154.761 33.6215V14.9358C154.761 7.11836 148.087 0 139.507 0Z"/><path d="M50.5912 14.7452V34.1935C50.5912 35.6553 49.2565 36.7358 47.9854 36.7358H41.2483C39.9136 36.7358 38.8332 35.6553 38.8332 34.1935V14.9358C38.2612 11.5038 36.2274 10.7411 33.8122 10.9318C33.0495 8.77082 32.2868 6.92769 31.0157 5.1481C28.4099 2.60583 28.7912 3.49563 28.0285 2.60583C28.2192 2.60583 29.5539 1.52536 31.397 0.953351C32.8588 0.572011 35.6553 0.381337 37.562 0.572007C42.583 1.27113 44.2991 2.54226 45.7609 3.68628L47.2862 5.1481C50.7818 8.89795 50.5912 13.2834 50.5912 14.7452ZM65.1457 1.4618H58.5993C57.074 1.4618 55.9935 2.54226 55.9935 4.00407V34.13C55.9935 35.5918 57.1375 36.6722 58.5993 36.6722H65.1457C66.671 36.6722 67.7515 35.5918 67.7515 34.13V4.00407C67.7515 2.54226 66.6075 1.4618 65.1457 1.4618ZM102.39 1.4618H95.6529C94.1276 1.4618 93.0471 2.54226 93.0471 4.00407V24.7236C93.0471 27.0752 90.4413 27.4565 90.4413 27.4565V37.6256H94.0004C95.4623 37.4349 97.7503 37.0536 99.5935 35.7824C101.055 34.702 102.581 33.0495 103.725 31.2064C104.487 29.9352 104.678 28.8548 104.869 27.393V3.94051C104.805 2.54226 103.725 1.4618 102.39 1.4618ZM85.1025 25.1049V22.1813L84.9118 4.38541C84.9118 2.92361 83.7678 1.84314 82.4967 1.84314H75.7597C74.2979 1.84314 73.1538 2.92361 73.1538 4.38541V27.8379C73.3445 29.2997 73.5352 30.3801 74.425 31.6513C75.569 33.3037 76.8401 35.0833 78.5562 36.0367C80.3993 37.3078 82.4967 37.8798 83.9585 37.8798H87.5177V27.7108C87.5177 27.6472 85.1025 27.2659 85.1025 25.1049ZM16.0799 0.572007H15.3172C6.92769 0.572007 0.190672 7.30902 0.190672 15.1265L0 34.1935C0 35.6553 1.14403 36.7358 2.60583 36.7358H8.77083C10.2326 36.7358 11.3767 35.6553 11.3767 34.1935V14.9358C11.758 13.474 13.9825 11.6309 15.8256 11.6309C17.4781 11.6309 19.5755 13.474 20.1475 14.9358V34.0029C20.1475 35.4647 21.2915 36.5451 22.5626 36.5451H28.9183C30.253 36.5451 31.3335 35.4647 31.3335 34.0029L31.5242 15.4443C31.5877 7.43613 24.66 0.572007 16.0799 0.572007ZM170.459 4.76676L169.125 3.30494C167.663 2.22447 165.947 0.953355 160.735 0.0635606C159.083 -0.12711 156.286 0.254227 154.761 0.635568C152.918 1.20758 151.392 2.28805 151.202 2.28805C152.155 3.17784 151.583 2.28805 154.189 4.83032C155.651 6.67346 156.413 8.45304 156.985 10.614C159.591 10.4233 161.434 11.186 162.006 14.6181V33.8757C162.006 35.3376 163.277 36.418 164.612 36.418H171.349C172.684 36.418 173.764 35.3376 173.764 33.8757L173.955 14.4274C174.018 12.902 174.146 8.58016 170.459 4.76676ZM188.509 1.14401H181.772C180.438 1.14401 179.357 2.22448 179.357 3.68628V33.8122C179.357 35.274 180.501 36.3545 181.772 36.3545H188.509C189.844 36.3545 190.925 35.274 190.925 33.8122V3.68628C190.925 2.22448 189.844 1.14401 188.509 1.14401ZM225.626 1.14401H218.889C217.618 1.14401 216.474 2.22448 216.474 3.68628V21.6729C216.474 21.8635 216.474 22.7533 216.284 24.4058C216.284 26.7574 213.868 27.1387 213.868 27.1387V37.3078H217.428C218.889 37.1171 220.987 36.6087 222.83 35.4647C224.482 34.3842 226.008 32.7317 227.088 30.9521C227.851 29.681 228.042 28.6005 228.232 27.1387V3.68628C228.232 2.22448 227.088 1.14401 225.626 1.14401ZM208.276 24.7236V3.81341C208.276 2.54227 207.131 1.4618 205.67 1.4618H199.123C197.598 1.4618 196.518 2.54227 196.518 3.81341V27.4565C196.708 28.9183 196.899 29.9988 197.662 31.0793C198.806 32.9224 200.267 34.702 201.92 35.5918C203.763 36.8629 205.86 37.4349 207.322 37.4349H210.881V27.2658C210.881 27.2658 208.466 26.8845 208.276 24.7236ZM139.507 0L138.744 0.190663C130.164 0.190663 123.491 6.92768 123.491 14.7452V33.8122C123.491 35.274 124.635 36.3545 126.097 36.3545H132.262C133.723 36.3545 134.867 35.274 134.867 33.8122L134.677 14.9358L134.867 14.5545C135.249 13.0927 137.473 11.3131 139.126 11.3131C140.778 11.3131 143.066 12.9656 143.384 14.5545L143.575 14.7452L143.384 33.6215C143.384 35.0833 144.528 36.1638 145.99 36.1638H152.155C153.68 36.1638 154.761 35.0833 154.761 33.6215V14.9358C154.761 7.11836 148.087 0 139.507 0Z" stroke-width="2" mask="url(#path-1-inside-1_44_2280)"/></symbol><symbol viewBox="0 0 17 21" id="pinterest" xmlns="http://www.w3.org/2000/svg"><path d="M7.31018 13.6041C6.78144 16.4357 6.13776 19.151 4.22761 20.5689C3.6393 16.2892 5.09386 13.0743 5.76889 9.66207C4.61737 7.67807 5.90787 3.68411 8.33631 4.66779C11.3248 5.87897 5.748 12.0449 9.49202 12.8157C13.4011 13.6197 14.9978 5.87377 12.5736 3.35379C9.07091 -0.282851 2.37806 3.27172 3.20147 8.47894C3.4021 9.75244 4.68634 10.1388 3.71454 11.8964C1.47314 11.3864 0.804379 9.57689 0.891109 7.16389C1.02904 3.21667 4.35718 0.45154 7.69472 0.0692829C11.9163 -0.414771 15.8777 1.65544 16.4242 5.72004C17.0407 10.3071 14.5192 15.2765 10.0061 14.9181C8.78251 14.8215 8.26839 14.2014 7.31018 13.6041Z"/></symbol><symbol viewBox="0 0 25 21" id="twitter" xmlns="http://www.w3.org/2000/svg"><path d="M24.7329 3.158C23.8386 3.56203 22.8915 3.82694 21.9222 3.94414C22.9396 3.32613 23.7046 2.34608 24.0744 1.1871C23.1105 1.76754 22.0591 2.17638 20.9643 2.39655C20.5032 1.89698 19.9486 1.49981 19.3343 1.22928C18.72 0.958748 18.0589 0.820521 17.3912 0.823032C14.6879 0.823032 12.4964 3.0568 12.4964 5.80891C12.4964 6.19889 12.5393 6.58024 12.6228 6.94431C10.6837 6.8489 8.78512 6.33639 7.04818 5.43946C5.31125 4.54253 3.77412 3.2809 2.53489 1.73505C2.10043 2.4933 1.87208 3.3589 1.87397 4.24033C1.8748 5.06469 2.07419 5.87584 2.45411 6.60047C2.83403 7.32511 3.38252 7.94039 4.04999 8.39071C3.27393 8.36479 2.51463 8.15045 1.83341 7.765V7.82671C1.83341 10.2431 3.52149 12.2585 5.75836 12.7176C5.33796 12.833 4.90487 12.8914 4.46992 12.8916C4.15378 12.8916 3.84718 12.8607 3.54774 12.799C3.86756 13.7961 4.47959 14.6654 5.29884 15.2862C6.11808 15.907 7.10387 16.2485 8.11929 16.2632C6.3776 17.651 4.23946 18.4008 2.04099 18.3946C1.64491 18.3946 1.256 18.3699 0.873047 18.3254C3.11737 19.7949 5.7197 20.5731 8.37578 20.5691C17.3793 20.5691 22.3016 12.9706 22.3016 6.38155L22.2849 5.7361C23.2451 5.03717 24.0746 4.16363 24.7329 3.158Z"/></symbol></svg>