<?xml version="1.0" encoding="utf-8"?><svg viewBox="0 0 1409 611" xmlns="http://www.w3.org/2000/svg" xmlns:xlink="http://www.w3.org/1999/xlink"><style>:root>svg{display:none}:root>svg:target{display:block}</style><svg fill="none" viewBox="0 0 264 36" id="burberry" xmlns="http://www.w3.org/2000/svg">
    <path d="M95.62 11.322C95.62 5.551 90.916.848 85.144.848H67.69v34.2h7.766V21.797h6.2l7.552 13.253h8.621l-8.194-14.322c3.705-1.71 5.985-5.415 5.985-9.405ZM83.577 15.17h-8.194V7.473h8.336c2.565.143 4.204 1.64 4.204 3.848-.071 2.209-1.781 3.776-4.346 3.848ZM54.008.92h7.98v20.59c0 8.979-5.557 14.394-14.89 14.394-9.335 0-14.892-5.344-14.892-14.393V.919h7.98v20.093c0 4.845 2.565 7.624 6.911 7.624 4.418 0 6.983-2.779 6.983-7.624V.92h-.072Zm88.281 27.288h18.454v6.84H134.38V.849h25.508v6.555H142.36v6.84h15.391v6.698H142.36v7.268h-.071ZM21.66 16.096c2.423-1.496 3.92-4.133 3.92-6.983 0-4.489-3.635-8.194-8.195-8.265H0v34.2h18.882c5.343 0 9.618-4.346 9.618-9.69 0-3.776-2.208-7.695-6.84-9.262ZM7.838 7.26h6.412c1.924 0 3.563 1.638 3.563 3.562a3.528 3.528 0 0 1-3.563 3.563H7.838V7.26Zm8.764 21.375H7.838v-7.98h8.692c2.85 0 4.204 2.28 4.204 3.919 0 2.066-1.425 4.061-4.132 4.061Zm177.344-17.314c0-5.771-4.702-10.474-10.474-10.474h-17.456v34.2h7.766V21.797h6.199l7.553 13.253h8.621l-8.194-14.322c3.634-1.71 5.985-5.415 5.985-9.405Zm-12.113 3.848h-8.193V7.473h8.336c2.565.143 4.204 1.64 4.204 3.848 0 2.209-1.782 3.776-4.347 3.848Zm-58.639.926c2.422-1.496 3.918-4.133 3.918-6.983 0-4.489-3.633-8.194-8.193-8.265h-17.386v34.2h18.882c5.344 0 9.619-4.346 9.619-9.69 0-3.776-2.28-7.695-6.84-9.262ZM109.371 7.26h6.412c1.924 0 3.563 1.638 3.563 3.562a3.528 3.528 0 0 1-3.563 3.563h-6.412V7.26Zm8.692 21.375h-8.692v-7.98h8.692c2.851 0 4.204 2.28 4.204 3.919 0 2.066-1.425 4.061-4.204 4.061ZM263.345.848l-13.609 20.235v13.894h-8.408V21.083L227.791.848h9.975l7.837 11.756L253.441.848h9.904Zm-35.626 10.474c0-5.771-4.702-10.474-10.474-10.474h-17.456v34.2h7.766V21.797h6.199l7.553 13.253h8.692l-8.194-14.322c3.634-1.71 5.914-5.415 5.914-9.405Zm-12.112 3.848h-8.194V7.473h8.336c2.565.143 4.204 1.64 4.204 3.848 0 2.209-1.71 3.776-4.346 3.848Z" fill="#A7A7A7"/>
</svg><svg fill="none" viewBox="0 0 205 37" id="dunkin" xmlns="http://www.w3.org/2000/svg">
    <path d="M103.971 5.16c.118.647.118 1.293.118 1.94v23.876c0 2.47-.882 4.41-3.176 5.41-2.47 1.059-4.822.647-6.822-1.176-1.234-1.117-2.175-2.529-3.234-3.881-2.764-3.529-5.763-6.94-8.115-10.82.058-.06 0-.06-.06-.118-.117.176-.058.411-.058.588v9.233c0 .882-.118 1.705-.353 2.528-.764 2.647-2.999 4.234-5.763 4.058-3.41-.235-5.351-2.294-5.587-5.88-.058-.354-.058-.706-.058-1.06V6.043c0-2.47.94-4.41 3.293-5.41 2.41-1 4.704-.647 6.704 1.176 1.058.94 1.823 2.234 2.705 3.41 2.646 3.588 5.469 7.116 7.939 10.88.235.412.47.764.882 1.117V6.747c0-1.352.235-2.705.94-3.88C94.622.69 96.62-.016 98.973.22c2.764.235 4.646 2.117 4.999 4.94ZM189.829 4.1c-.588-2-1.881-3.41-3.998-3.822-2.235-.412-4.293-.118-5.881 1.764-1.059 1.294-1.412 2.823-1.412 4.41v10.939a30.586 30.586 0 0 0-1.058-1.706c-3.058-4.47-6.351-8.703-9.586-13.055-.411-.53-.941-1-1.529-1.411-2.058-1.353-4.175-1.47-6.351-.47-1.94.94-2.94 2.587-2.94 4.704-.059 8.35 0 16.76 0 25.11 0 .177.059.412.059.588.235 3.352 2.234 5.47 5.528 5.705 2.293.176 4.41-1 5.41-3 .411-.882.705-1.764.705-2.704 0-3.411.059-6.704.059-10.056v-.647c.059 0 .059 0 0 0 .353.588.647 1.117 1.059 1.646 2.999 4.293 6.41 8.233 9.585 12.35.236.294.588.647.883.882 1.999 1.646 4.292 1.94 6.645.94 2.293-.999 3.175-2.94 3.175-5.35V6.982c0-.941-.059-1.94-.353-2.882ZM31.815 11.922c2.352 6.528 1.588 12.762-3.058 18.23-2.823 3.353-6.646 5.117-10.938 5.705-3.94.588-7.94.176-11.938.235a2.09 2.09 0 0 1-.588-.117C2.176 35.445 0 32.858 0 29.74V7.218C0 3.69 2.705.867 6.292.808h4.999c2.058.059 4.41-.176 6.763.294 6.469 1.235 11.467 4.47 13.76 10.82ZM21.288 18.51c.059-3.293-2.117-5.88-5.41-6.292-1.235-.177-2.411-.06-3.646-.118-.47-.059-.588.118-.588.588.059 1.94.059 3.881.059 5.822v5.822c0 .294-.06.53.411.53 1.235-.06 2.47.058 3.705-.119 3.234-.411 5.41-2.822 5.47-6.233Zm108.147.235c-.295-.353-.295-.53 0-.882 2.058-2.352 4.116-4.704 6.115-7.116 1-1.235 1.647-2.587 1.765-4.175.235-3.47-3.058-6.645-6.528-6.292-1.999.176-3.411 1.293-4.587 2.822-2.058 2.706-4.234 5.293-6.351 7.998 0-1.764.059-3.528.059-5.234-.118-3.41-2.529-5.704-5.822-5.763-3.352 0-5.822 2.353-5.881 5.763-.059 8.41-.059 16.82 0 25.229 0 3.352 2.47 5.763 5.822 5.763 3.293.059 5.704-2.352 5.822-5.763.118-1.706.059-3.352.059-5.058 0-.176-.118-.353.117-.47.118.176.177.294.294.412 2.235 2.881 4.587 5.645 6.881 8.468.823 1 1.764 1.705 2.999 2.058 3.528 1.059 7.41-1.94 7.527-5.763.059-1.823-.588-3.293-1.764-4.646-2.176-2.411-4.352-4.94-6.527-7.35Zm-62.513-3.646c0-3.352 0-6.116-.058-8.939 0-.529 0-1-.118-1.47C66.1 1.69 63.453-.19 60.395.102c-3.117.353-5.234 2.705-5.234 5.881v14.525c0 .353 0 .706-.059 1.059-.294 2.764-2.94 4.47-5.351 3.234-1.53-.764-2.117-2.117-2.117-3.763V6.159c0-3.587-2.411-6.057-5.822-6.115-3.41 0-5.822 2.47-5.88 5.998-.06 5.234 0 10.467 0 15.76.058.765.058 1.47.176 2.176.823 5.528 3.704 9.527 8.938 11.644 2.94 1.235 5.999 1.411 9.115 1 7.057-.883 12.291-6.47 12.703-13.526.176-2.823 0-5.704.058-7.998Zm84.271-13.526c-1.94-1.705-4.175-1.999-6.527-1-2.235 1-3.235 2.882-3.294 5.293-.058 4.176 0 8.351 0 12.526 0 4.293 0 8.469-.058 12.703 0 3.293 2.411 5.586 5.763 5.704 3.175.118 5.822-2.294 5.88-5.528.059-8.586.059-17.172 0-25.757 0-1.53-.588-2.94-1.764-3.94ZM193.828 8.57c-.058-1.41 0-2.822.294-4.234.647-2.94 3.117-4.587 6.116-4.116 2.882.47 4.764 2.823 4.47 5.763-.235 2.411-.941 4.763-1.882 6.998-.588 1.294-1.411 2.352-2.823 2.823-2.293.764-4.704-.353-5.528-2.646-.588-1.47-.647-3.058-.647-4.587Z" fill="#A7A7A7"/>
</svg><svg fill="none" viewBox="0 0 145 34" id="exotic" xmlns="http://www.w3.org/2000/svg">
    <path fill-rule="evenodd" clip-rule="evenodd" d="M61.78.772c-8.918 0-16.148 7.23-16.148 16.149 0 8.918 7.23 16.148 16.149 16.148 8.918 0 16.148-7.23 16.148-16.148C77.972 8.002 70.742.772 61.781.772Zm0 26.41c-5.671 0-10.26-4.59-10.26-10.261 0-5.672 4.589-10.26 10.26-10.26 5.672 0 10.261 4.588 10.261 10.26 0 5.671-4.589 10.26-10.26 10.26ZM103.04 6.66h-5.455V30.04a2.92 2.92 0 0 1-2.944 2.944 2.92 2.92 0 0 1-2.944-2.944V6.66h-4.243V30.04a2.92 2.92 0 0 1-2.944 2.944 2.92 2.92 0 0 1-2.944-2.944V6.66h-4.892a2.92 2.92 0 0 1-2.944-2.944A2.92 2.92 0 0 1 76.674.772h26.322a2.92 2.92 0 0 1 2.944 2.944c.044 1.602-1.298 2.944-2.9 2.944Zm41.259-2.944V30.04a2.92 2.92 0 0 1-2.944 2.944 2.92 2.92 0 0 1-2.944-2.944V12.938v.216l-12.642 18.14c-.909 1.342-2.641 1.775-3.593 1.819-8.14 0-14.85-6.018-15.976-13.811v10.737a2.92 2.92 0 0 1-2.944 2.944 2.92 2.92 0 0 1-2.944-2.944V11.985a2.92 2.92 0 0 1 2.944-2.944 2.92 2.92 0 0 1 2.944 2.944v2.598A16.108 16.108 0 0 1 122.176.773c2.857 0 5.585.778 7.922 2.077.78.52 1.343 1.429 1.343 2.468a2.92 2.92 0 0 1-2.944 2.944c-.563 0-1.039-.13-1.472-.39-1.429-.779-3.031-1.169-4.806-1.169a10.255 10.255 0 0 0-10.261 10.261c0 5.369 4.156 9.785 9.438 10.217l17.275-24.59c.476-1.04 1.472-1.776 2.684-1.776 1.645-.043 2.944 1.256 2.944 2.901ZM48.662 28.177c1.04 1.256.823 3.117-.432 4.156-1.256 1.04-3.118.823-4.157-.432L35.588 21.38 27.102 31.9c-1.039 1.256-2.857 1.473-4.156.433-1.256-1.039-1.472-2.857-.433-4.156l9.308-11.473-3.767-4.632v2.684a10.07 10.07 0 0 1-10.087 10.088A10.07 10.07 0 0 1 7.88 14.756V3.716A2.92 2.92 0 0 1 10.823.772a2.92 2.92 0 0 1 2.944 2.944v11.04c0 2.338 1.862 4.2 4.2 4.2s4.2-1.905 4.2-4.2V3.716A2.92 2.92 0 0 1 25.11.772c1.04 0 1.949.563 2.468 1.386l8.01 9.87L43.77 1.941c1.04-1.255 2.858-1.472 4.156-.433 1.256 1.04 1.472 2.857.433 4.156l-8.962 11.084 9.265 11.43Zm-27.751 1.775a2.92 2.92 0 0 1-2.944 2.944H3.593a3.341 3.341 0 0 1-.649.087A2.92 2.92 0 0 1 0 30.039V3.716A2.92 2.92 0 0 1 2.944.772a2.92 2.92 0 0 1 2.944 2.944v23.292h12.079a2.92 2.92 0 0 1 2.944 2.944Z" fill="#A7A7A7"/>
</svg><svg fill="none" viewBox="0 0 10 20" id="facebook" xmlns="http://www.w3.org/2000/svg">
    <path d="M2.135 3.824v2.719H0v3.324h2.135v9.88h4.381v-9.88h2.942s.275-1.593.409-3.336H6.534V4.257c0-.339.477-.796.95-.796h2.389V0H6.625c-4.6 0-4.49 3.326-4.49 3.823Z" fill="#000"/>
</svg><svg viewBox="-1 0 68 31" fill="none" id="footer-logo" xmlns="http://www.w3.org/2000/svg">
    <path fill-rule="evenodd" clip-rule="evenodd" d="M58.331 26.686c-.73.847-2.215.72-2.459-.52-.116-.614.053-1.355.319-1.874.593-1.134 1.664-2.066 2.883-2.373 0 .7 0 1.62-.022 2.33-.021.784-.19 1.812-.72 2.437ZM46.535 9.938c.678.042 1.219.784 1.039 2.044-.223 1.494-1.463 3.094-2.873 3.454-.222-.53-.328-1.61-.201-2.67.233-1.938 1.23-2.87 2.035-2.828Zm-26.423 7.225c-1.05-1.399-1.007-3.094-.678-4.704 1.027 2.31 3.773 2.712 5.468 2.373-.222 1.78-1.155 3.337-2.766 3.337-.9.01-1.558-.381-2.024-1.006Zm3.71-6.526c.517.528.865 1.297 1.025 2.15l.002.011-.002-.01c-1.186.169-2.33-.054-3.167-.7-.604-.476-.763-1.228-.508-1.684.37-.657 1.483-.943 2.65.233ZM7.668 1.951c.73-.858 2.215-.72 2.448.519.116.603-.043 1.345-.307 1.864C9.216 5.467 8.145 6.4 6.926 6.717c0-.71-.01-1.62.022-2.33.02-.784.19-1.822.72-2.436Zm54.107 18.368c.01-3.686 0-7.373 0-11.059 0-.911-2.618-.964-2.702-.042 0 .37 0 .752-.011 1.122-.042 2.024-1.007 5.805-2.607 7.183-.435.37-.827.392-1.103.19-.244-.18-.307-.635-.307-1.027v-.509c0-2.277.01-4.629 0-6.906 0-.912-2.618-.975-2.703-.053 0 2.118 0 4.173.01 6.27-1.727 2.755-5.723 4.047-7.376.785 1.028.392 2.12.2 2.862-.191 1.282-.678 2.257-1.8 2.448-3.58.18-5.212-6.71-5.922-8.246-.615a8.88 8.88 0 0 0-.36 2.744c.031.879.212 1.695.519 2.415-.562.55-1.208.932-1.855.911-.848-.032-.763-1.08-.763-1.684V12.3c0-.477 0-.953-.043-1.42-.137-1.387-1.197-2.489-2.68-2.584-2.11-.032-3.594 1.928-4.325 4.078-.01-1.197 0-1.907 0-3.114-.01-.9-2.438-.964-2.714-.01-.35 1.207-1.494 2.15-2.565 2.711-.328-.794-.741-1.525-1.314-2.15-2.353-2.553-5.755-2.087-7.748.02-1.58 1.675-2.056 4.694-1.208 6.812-.625.742-1.484 1.346-2.247 1.314-.382-.021-.594-.244-.689-.593-.095-.34-.074-.742-.074-1.091 0-1.325-.01-2.649 0-3.973 0-.477 0-.953-.042-1.42-.138-1.387-.954-2.5-2.502-2.595-2.66-.116-3.73 2.458-4.515 4.577V8.338a14.27 14.27 0 0 0 1.643-.392c5.861-1.684 4.727-7.839.36-7.944-2.946-.064-4.695 1.874-4.674 4.82v1.906c-1.06-.159-1.855-1.536-2.3-2.426l-.19-.413a.278.278 0 0 0-.34-.17c-.117.032-.233.075-.35.117-.424.19-.774.52-.943.954-.307.773 0 1.6.54 2.182.89.932 2.311 1.271 3.562 1.335-.011 3.675 0 7.34 0 11.016.042.52.752.657 1.166.668.434.01 1.377-.127 1.388-.72l.032-.456c.18-1.631 1.749-8.157 3.73-8.167.488 0 .732.318.732.794v5.816c0 1.8 1.018 3.008 2.862 3.008 1.43.01 2.724-1.027 3.497-2.32.106.138.191.286.308.413a5.518 5.518 0 0 0 4.186 1.94c3.7-.054 5.596-3.232 5.459-6.357.858-.476 1.632-1.091 2.226-1.854v7.236c.042.519.784.656 1.198.667.434.01 1.377-.127 1.377-.72l.043-.456.127-1.208c.19-1.684 1.452-6.949 3.604-6.96.476 0 .72.319.72.795v5.816c0 1.8 1.018 3.008 2.873 3.008 1.282.01 2.448-.826 3.232-1.928 1.039 1.282 2.629 2.034 4.536 2.034 2.237 0 3.859-.985 4.94-2.574.243 1.367.975 2.447 2.766 2.468 1.855.01 3.265-2.574 3.848-4.131v4.163c-.552.095-1.092.233-1.633.392-5.86 1.674-4.738 7.839-.37 7.934 2.956.075 4.695-1.864 4.684-4.809 0-.498-.01-1.43 0-1.917 1.05.159 1.855 1.546 2.29 2.436.074.138.137.276.19.413a.3.3 0 0 0 .35.17c.117-.032.233-.074.34-.127.434-.191.784-.509.953-.954.308-.773 0-1.589-.551-2.171-.88-.943-2.31-1.272-3.55-1.346Z" fill="#000"/>
</svg><svg fill="none" viewBox="0 0 28 19" id="google-plus" xmlns="http://www.w3.org/2000/svg">
    <path d="M24.49 8.063v-3.62h-1.697v3.62h-3.394v1.81h3.394v3.62h1.697v-3.62h3.394v-1.81H24.49Zm-15.272 0v3.62h4.8a5.417 5.417 0 0 1-1.862 2.622 4.885 4.885 0 0 1-2.938.998c-1.35-.002-2.644-.574-3.598-1.592-.955-1.018-1.491-2.398-1.493-3.838.002-1.44.538-2.82 1.493-3.838.954-1.017 2.248-1.59 3.598-1.592 1.216 0 2.387.465 3.297 1.31l2.228-2.73C13.21 1.604 11.248.822 9.218.824 6.968.825 4.81 1.78 3.22 3.476 1.63 5.173.735 7.474.733 9.873c.002 2.4.897 4.7 2.488 6.397 1.59 1.696 3.747 2.65 5.997 2.653 2.25-.002 4.406-.957 5.996-2.653 1.591-1.697 2.486-3.997 2.488-6.397v-1.81H9.218Z" fill="#000"/>
</svg><svg fill="none" viewBox="0 0 1409 611" id="honey-bg" xmlns="http://www.w3.org/2000/svg">
    <path opacity=".9" fill-rule="evenodd" clip-rule="evenodd" d="M1245.02 569.578c-15.61 18.09-47.28 15.376-52.49-11.076-2.48-13.118 1.14-28.943 6.79-40.023 12.67-24.193 35.52-44.089 61.54-50.646 0 14.924 0 34.594-.45 49.743-.46 16.732-4.08 38.661-15.39 52.002ZM993.234 212.116c14.476.903 26.016 16.728 22.176 43.635-4.75 31.883-31.224 66.021-61.31 73.708-4.755-11.304-7.014-34.367-4.302-56.976 4.979-41.378 26.244-61.274 43.436-60.367ZM429.262 366.314c-22.397-29.846-21.494-66.021-14.477-100.388 21.941 49.289 80.536 57.883 116.73 50.646-4.749 37.986-24.664 71.222-59.044 71.222-19.229.225-33.259-8.14-43.209-21.48Zm79.178-139.28c11.038 11.264 18.485 27.682 21.893 45.905.021-.002.051.222.051.222-.013-.075-.034-.147-.051-.222-25.318 3.607-49.732-1.141-67.59-14.929-12.892-10.173-16.289-26.225-10.859-35.948 7.915-14.017 31.673-20.123 56.556 4.972Zm-344.763-185.4c15.606-18.311 47.278-15.376 52.256 11.08 2.486 12.886-.907 28.713-6.559 39.791-12.674 24.192-35.522 44.088-61.539 50.872 0-15.145-.227-34.592.459-49.74.448-16.731 4.07-38.89 15.383-52.003ZM1318.55 433.692c.22-78.682 0-157.365 0-236.049 0-19.443-55.88-20.577-57.69-.903 0 7.912 0 16.052-.23 23.965-.9 43.186-21.49 123.903-55.65 153.296-9.27 7.916-17.65 8.367-23.52 4.069-5.21-3.844-6.57-13.563-6.57-21.93v-10.852c0-48.611.23-98.807 0-147.42 0-19.445-55.88-20.802-57.69-1.128 0 45.218 0 89.084.23 133.851-36.87 58.786-122.159 86.371-157.45 16.73 21.945 8.367 45.24 4.296 61.08-4.069 27.38-14.471 48.19-38.436 52.26-76.421 3.84-111.244-143.198-126.389-176.005-13.113-5.427 18.765-8.367 38.888-7.687 58.558.674 18.766 4.521 36.175 11.082 51.552-11.993 11.756-25.79 19.895-39.587 19.445-18.103-.68-16.287-23.062-16.287-35.952v-84.788c0-10.173 0-20.348-.909-30.294-2.937-29.62-25.563-53.136-57.232-55.173-45.023-.676-76.692 41.153-92.301 87.052-.223-25.549 0-40.7 0-66.475-.223-19.22-52.029-20.577-57.911-.227-7.466 25.777-31.9 45.899-54.75 57.881-7.009-16.955-15.83-32.555-28.047-45.894-50.226-54.494-122.839-44.542-165.374.449-33.707 35.726-43.882 100.164-25.787 145.382-13.346 15.83-31.668 28.717-47.957 28.039-8.148-.453-12.671-5.203-14.708-12.663-2.038-7.237-1.581-15.825-1.581-23.289 0-28.263-.229-56.525 0-84.788 0-10.173 0-20.348-.903-30.294-2.945-29.62-20.364-53.363-53.39-55.395-56.785-2.491-79.633 52.455-96.378 97.673v-96.544c11.993-2.036 23.533-4.976 35.066-8.365C307.778 133.656 283.571 2.291 190.37.032 127.479-1.323 90.15 40.051 90.606 102.906v40.698c-22.625-3.389-39.593-32.782-49.09-51.775-1.362-2.94-2.72-5.88-4.073-8.82-1.13-2.94-4.298-4.519-7.244-3.615-2.484.676-4.972 1.582-7.464 2.486-9.045 4.07-16.516 11.08-20.13 20.35-6.56 16.504 0 34.141 11.532 46.575 19.008 19.898 49.323 27.132 76.012 28.488-.227 78.458 0 156.689 0 235.145.905 11.081 16.066 14.021 24.887 14.244 9.278.228 29.408-2.713 29.637-15.372l.678-9.724c3.846-34.818 37.323-174.097 79.627-174.325 10.41 0 15.615 6.784 15.615 16.959v124.131c0 38.436 21.715 64.21 61.079 64.21 30.54.228 58.135-21.933 74.651-49.514 2.26 2.939 4.072 6.103 6.56 8.816 21.49 25.099 53.163 41.153 89.361 41.378 78.947-1.132 119.441-68.961 116.506-135.661 18.323-10.173 34.839-23.291 47.502-39.57v154.428c.907 11.081 16.745 14.021 25.57 14.244 9.27.228 29.408-2.713 29.408-15.372l.903-9.724 2.712-25.775c4.076-35.95 30.996-148.322 76.919-148.55 10.175 0 15.386 6.784 15.386 16.959v124.131c0 38.436 21.717 64.21 61.3 64.21 27.377.228 52.26-17.635 69.001-41.149 22.168 27.358 56.107 43.41 96.819 43.41 47.74 0 82.35-21.026 105.42-54.942 5.21 29.169 20.82 52.229 59.05 52.681 39.58.228 69.68-54.94 82.12-88.18v88.86c-11.77 2.034-23.3 4.974-34.84 8.363-125.1 35.726-101.12 167.315-7.92 169.352 63.12 1.583 100.22-39.795 99.99-102.65 0-10.625-.22-30.523 0-40.925 22.4 3.393 39.59 33.013 48.87 52.005a76.907 76.907 0 0 1 4.07 8.816c1.36 2.94 4.29 4.296 7.46 3.616 2.49-.676 4.98-1.579 7.24-2.713 9.28-4.067 16.75-10.849 20.36-20.346 6.57-16.505 0-33.915-11.76-46.352-18.77-20.121-49.32-27.132-75.78-28.715Z" fill="#FFA638"/>
</svg><svg fill="none" viewBox="0 0 93 40" id="logo" xmlns="http://www.w3.org/2000/svg">
    <path fill-rule="evenodd" clip-rule="evenodd" d="M81.507 37.288c-1.022 1.184-3.095 1.007-3.436-.725-.163-.859.074-1.895.444-2.62.83-1.584 2.326-2.886 4.029-3.316 0 .977 0 2.265-.03 3.257-.03 1.095-.266 2.53-1.007 3.404ZM65.023 13.887c.949.059 1.704 1.095 1.452 2.856-.311 2.087-2.044 4.322-4.013 4.826-.312-.74-.46-2.25-.282-3.73.326-2.71 1.718-4.012 2.843-3.952ZM28.103 23.98c-1.467-1.954-1.408-4.322-.949-6.572 1.437 3.227 5.273 3.79 7.642 3.316-.31 2.487-1.614 4.662-3.865 4.662-1.259.015-2.177-.532-2.829-1.406Zm5.183-9.118c.722.738 1.21 1.812 1.433 3.005l.003.015-.003-.015c-1.657.237-3.256-.074-4.425-.977-.844-.666-1.066-1.717-.71-2.353.517-.918 2.073-1.318 3.702.325ZM10.716 2.726c1.021-1.2 3.095-1.007 3.42.725.163.844-.059 1.88-.429 2.605-.83 1.584-2.325 2.886-4.029 3.33 0-.991-.015-2.264.03-3.256.03-1.095.267-2.546 1.007-3.404ZM86.32 28.392c.014-5.15 0-10.302 0-15.453 0-1.273-3.659-1.347-3.777-.06 0 .519 0 1.052-.015 1.57-.059 2.827-1.407 8.111-3.643 10.036-.607.518-1.155.547-1.54.266-.341-.252-.43-.888-.43-1.436v-.71c0-3.183.015-6.469 0-9.651 0-1.273-3.658-1.362-3.777-.074 0 2.96 0 5.832.015 8.763-2.414 3.848-7.997 5.654-10.307 1.095 1.436.548 2.961.281 3.998-.267 1.792-.947 3.155-2.516 3.421-5.003.252-7.282-9.374-8.274-11.522-.858-.355 1.229-.548 2.546-.503 3.834.044 1.228.296 2.368.725 3.375-.785.77-1.688 1.302-2.591 1.273-1.185-.045-1.067-1.51-1.067-2.354v-5.55c0-.667 0-1.333-.06-1.984-.191-1.94-1.673-3.479-3.746-3.612-2.947-.044-5.02 2.694-6.043 5.699-.014-1.673 0-2.665 0-4.352-.014-1.258-3.406-1.347-3.79-.015-.49 1.688-2.09 3.005-3.585 3.79-.459-1.11-1.036-2.132-1.836-3.005-3.288-3.568-8.042-2.916-10.827.03-2.206 2.338-2.872 6.557-1.688 9.517-.873 1.036-2.073 1.88-3.14 1.835-.533-.03-.829-.34-.962-.829-.134-.473-.104-1.035-.104-1.524 0-1.85-.015-3.7 0-5.55 0-.667 0-1.333-.059-1.984-.193-1.94-1.333-3.494-3.495-3.627-3.718-.163-5.213 3.434-6.31 6.395v-6.32c.785-.134 1.541-.326 2.296-.548C20.149 8.75 18.564.15 12.463.002c-4.117-.089-6.561 2.62-6.531 6.735V9.4C4.45 9.18 3.34 7.255 2.718 6.011c-.09-.192-.178-.384-.267-.577a.389.389 0 0 0-.474-.236c-.163.044-.326.103-.489.162-.592.267-1.08.726-1.317 1.333-.43 1.08 0 2.235.754 3.049 1.245 1.302 3.23 1.776 4.977 1.865-.015 5.136 0 10.258 0 15.394.059.725 1.051.918 1.629.932.607.015 1.925-.177 1.94-1.006l.045-.637c.251-2.279 2.443-11.397 5.213-11.412.681 0 1.022.444 1.022 1.11v8.127c0 2.516 1.421 4.203 3.998 4.203 2 .015 3.806-1.436 4.888-3.241.148.192.266.4.429.577a7.71 7.71 0 0 0 5.85 2.709c5.168-.074 7.82-4.515 7.627-8.881 1.2-.666 2.281-1.525 3.11-2.591v10.11c.06.725 1.096.918 1.674.932.607.015 1.925-.177 1.925-1.006l.06-.637.177-1.687c.267-2.354 2.03-9.71 5.036-9.725.666 0 1.007.444 1.007 1.11v8.127c0 2.516 1.422 4.203 4.013 4.203 1.792.015 3.421-1.154 4.517-2.694 1.452 1.791 3.673 2.842 6.339 2.842 3.125 0 5.39-1.376 6.901-3.597.341 1.91 1.363 3.42 3.866 3.45 2.591.014 4.561-3.598 5.376-5.774v5.818c-.77.133-1.525.325-2.28.547-8.19 2.34-6.621 10.954-.52 11.087 4.133.104 6.561-2.605 6.547-6.72 0-.696-.015-1.998 0-2.68 1.466.223 2.591 2.162 3.199 3.405.103.193.192.385.267.578a.42.42 0 0 0 .488.236c.163-.044.326-.103.474-.177.607-.267 1.096-.71 1.333-1.332.43-1.08 0-2.22-.77-3.035-1.23-1.317-3.229-1.776-4.962-1.88Z" fill="#FFA638"/>
</svg><svg fill="none" viewBox="0 0 229 38" id="miu" xmlns="http://www.w3.org/2000/svg">
    <path d="M50.591 14.745v19.449c0 1.461-1.334 2.542-2.606 2.542h-6.737c-1.334 0-2.415-1.08-2.415-2.542V14.936c-.572-3.432-2.606-4.195-5.02-4.004-.764-2.161-1.526-4.004-2.797-5.784-2.606-2.542-2.225-1.652-2.987-2.542.19 0 1.525-1.08 3.368-1.653 1.462-.381 4.258-.572 6.165-.381 5.021.7 6.737 1.97 8.199 3.114l1.525 1.462c3.496 3.75 3.305 8.135 3.305 9.597ZM65.146 1.462h-6.547c-1.525 0-2.605 1.08-2.605 2.542V34.13c0 1.462 1.144 2.542 2.605 2.542h6.547c1.525 0 2.605-1.08 2.605-2.542V4.004c0-1.462-1.144-2.542-2.605-2.542Zm37.244 0h-6.737c-1.525 0-2.606 1.08-2.606 2.542v20.72c0 2.351-2.606 2.732-2.606 2.732v10.17h3.56c1.461-.191 3.75-.572 5.593-1.844 1.461-1.08 2.987-2.732 4.131-4.576.762-1.27.953-2.351 1.144-3.813V3.941c-.064-1.399-1.144-2.48-2.479-2.48ZM85.103 25.105V22.18l-.191-17.796c0-1.461-1.144-2.542-2.415-2.542H75.76c-1.462 0-2.606 1.08-2.606 2.542v23.453c.19 1.462.381 2.542 1.271 3.813 1.144 1.653 2.415 3.432 4.131 4.386 1.843 1.27 3.94 1.843 5.403 1.843h3.559V27.71c0-.063-2.415-.444-2.415-2.605ZM16.08.572h-.763C6.927.572.191 7.309.191 15.127L0 34.192c0 1.462 1.144 2.543 2.606 2.543H8.77c1.462 0 2.606-1.08 2.606-2.542V14.936c.381-1.462 2.605-3.305 4.449-3.305 1.652 0 3.75 1.843 4.322 3.305v19.067c0 1.462 1.143 2.542 2.415 2.542h6.355c1.335 0 2.416-1.08 2.416-2.542l.19-18.559C31.588 7.436 24.66.572 16.08.572Zm154.379 4.195-1.334-1.462c-1.462-1.08-3.178-2.352-8.39-3.241-1.652-.191-4.449.19-5.974.572-1.843.572-3.369 1.652-3.559 1.652.953.89.381 0 2.987 2.542 1.462 1.843 2.224 3.623 2.796 5.784 2.606-.19 4.449.572 5.021 4.004v19.258c0 1.462 1.271 2.542 2.606 2.542h6.737c1.335 0 2.415-1.08 2.415-2.542l.191-19.449c.063-1.525.191-5.847-3.496-9.66Zm18.05-3.623h-6.737c-1.334 0-2.415 1.08-2.415 2.542v30.126c0 1.462 1.144 2.543 2.415 2.543h6.737c1.335 0 2.416-1.081 2.416-2.543V3.686c0-1.462-1.081-2.542-2.416-2.542Zm37.117 0h-6.737c-1.271 0-2.415 1.08-2.415 2.542v17.987c0 .19 0 1.08-.19 2.733 0 2.351-2.416 2.733-2.416 2.733v10.169h3.56c1.461-.19 3.559-.7 5.402-1.843 1.652-1.08 3.178-2.733 4.258-4.513.763-1.271.954-2.352 1.144-3.813V3.686c0-1.462-1.144-2.542-2.606-2.542Zm-17.35 23.58V3.814c0-1.272-1.145-2.352-2.606-2.352h-6.547c-1.525 0-2.605 1.08-2.605 2.351v23.643c.19 1.462.381 2.543 1.144 3.623 1.144 1.843 2.605 3.623 4.258 4.513 1.843 1.27 3.94 1.843 5.402 1.843h3.559v-10.17s-2.415-.38-2.605-2.541ZM139.507 0l-.763.19c-8.58 0-15.253 6.738-15.253 14.555v19.067c0 1.462 1.144 2.543 2.606 2.543h6.165c1.461 0 2.605-1.081 2.605-2.543l-.19-18.876.19-.381c.382-1.462 2.606-3.242 4.259-3.242 1.652 0 3.94 1.653 4.258 3.242l.191.19-.191 18.877c0 1.461 1.144 2.542 2.606 2.542h6.165c1.525 0 2.606-1.08 2.606-2.543V14.936C154.761 7.118 148.087 0 139.507 0Z"/>
    <path d="M50.591 14.745v19.449c0 1.461-1.334 2.542-2.606 2.542h-6.737c-1.334 0-2.415-1.08-2.415-2.542V14.936c-.572-3.432-2.606-4.195-5.02-4.004-.764-2.161-1.526-4.004-2.797-5.784-2.606-2.542-2.225-1.652-2.987-2.542.19 0 1.525-1.08 3.368-1.653 1.462-.381 4.258-.572 6.165-.381 5.021.7 6.737 1.97 8.199 3.114l1.525 1.462c3.496 3.75 3.305 8.135 3.305 9.597ZM65.146 1.462h-6.547c-1.525 0-2.605 1.08-2.605 2.542V34.13c0 1.462 1.144 2.542 2.605 2.542h6.547c1.525 0 2.605-1.08 2.605-2.542V4.004c0-1.462-1.144-2.542-2.605-2.542Zm37.244 0h-6.737c-1.525 0-2.606 1.08-2.606 2.542v20.72c0 2.351-2.606 2.732-2.606 2.732v10.17h3.56c1.461-.191 3.75-.572 5.593-1.844 1.461-1.08 2.987-2.732 4.131-4.576.762-1.27.953-2.351 1.144-3.813V3.941c-.064-1.399-1.144-2.48-2.479-2.48ZM85.103 25.105V22.18l-.191-17.796c0-1.461-1.144-2.542-2.415-2.542H75.76c-1.462 0-2.606 1.08-2.606 2.542v23.453c.19 1.462.381 2.542 1.271 3.813 1.144 1.653 2.415 3.432 4.131 4.386 1.843 1.27 3.94 1.843 5.403 1.843h3.559V27.71c0-.063-2.415-.444-2.415-2.605ZM16.08.572h-.763C6.927.572.191 7.309.191 15.127L0 34.192c0 1.462 1.144 2.543 2.606 2.543H8.77c1.462 0 2.606-1.08 2.606-2.542V14.936c.381-1.462 2.605-3.305 4.449-3.305 1.652 0 3.75 1.843 4.322 3.305v19.067c0 1.462 1.143 2.542 2.415 2.542h6.355c1.335 0 2.416-1.08 2.416-2.542l.19-18.559C31.588 7.436 24.66.572 16.08.572Zm154.379 4.195-1.334-1.462c-1.462-1.08-3.178-2.352-8.39-3.241-1.652-.191-4.449.19-5.974.572-1.843.572-3.369 1.652-3.559 1.652.953.89.381 0 2.987 2.542 1.462 1.843 2.224 3.623 2.796 5.784 2.606-.19 4.449.572 5.021 4.004v19.258c0 1.462 1.271 2.542 2.606 2.542h6.737c1.335 0 2.415-1.08 2.415-2.542l.191-19.449c.063-1.525.191-5.847-3.496-9.66Zm18.05-3.623h-6.737c-1.334 0-2.415 1.08-2.415 2.542v30.126c0 1.462 1.144 2.543 2.415 2.543h6.737c1.335 0 2.416-1.081 2.416-2.543V3.686c0-1.462-1.081-2.542-2.416-2.542Zm37.117 0h-6.737c-1.271 0-2.415 1.08-2.415 2.542v17.987c0 .19 0 1.08-.19 2.733 0 2.351-2.416 2.733-2.416 2.733v10.169h3.56c1.461-.19 3.559-.7 5.402-1.843 1.652-1.08 3.178-2.733 4.258-4.513.763-1.271.954-2.352 1.144-3.813V3.686c0-1.462-1.144-2.542-2.606-2.542Zm-17.35 23.58V3.814c0-1.272-1.145-2.352-2.606-2.352h-6.547c-1.525 0-2.605 1.08-2.605 2.351v23.643c.19 1.462.381 2.543 1.144 3.623 1.144 1.843 2.605 3.623 4.258 4.513 1.843 1.27 3.94 1.843 5.402 1.843h3.559v-10.17s-2.415-.38-2.605-2.541ZM139.507 0l-.763.19c-8.58 0-15.253 6.738-15.253 14.555v19.067c0 1.462 1.144 2.543 2.606 2.543h6.165c1.461 0 2.605-1.081 2.605-2.543l-.19-18.876.19-.381c.382-1.462 2.606-3.242 4.259-3.242 1.652 0 3.94 1.653 4.258 3.242l.191.19-.191 18.877c0 1.461 1.144 2.542 2.606 2.542h6.165c1.525 0 2.606-1.08 2.606-2.543V14.936C154.761 7.118 148.087 0 139.507 0Z" fill="#A7A7A7" stroke="#000" stroke-width="2" mask="url(#path-1-inside-1_44_2280)"/>
</svg><svg fill="none" viewBox="0 0 17 21" id="pinterest" xmlns="http://www.w3.org/2000/svg">
    <path d="M7.31 13.604c-.529 2.832-1.172 5.547-3.082 6.965-.589-4.28.866-7.495 1.54-10.907-1.15-1.984.14-5.978 2.568-4.994 2.989 1.211-2.588 7.377 1.156 8.148 3.91.804 5.506-6.942 3.082-9.462C9.07-.283 2.378 3.272 3.2 8.479c.201 1.273 1.485 1.66.514 3.417-2.242-.51-2.91-2.32-2.824-4.732C1.03 3.217 4.357.452 7.695.069c4.221-.484 8.183 1.586 8.73 5.651.616 4.587-1.906 9.557-6.419 9.198-1.223-.096-1.738-.717-2.696-1.314Z" fill="#000"/>
</svg><svg fill="none" viewBox="0 0 25 21" id="twitter" xmlns="http://www.w3.org/2000/svg">
    <path d="M24.733 3.158a9.634 9.634 0 0 1-2.81.786 4.993 4.993 0 0 0 2.151-2.757c-.964.58-2.015.99-3.11 1.21a4.916 4.916 0 0 0-1.63-1.168 4.774 4.774 0 0 0-1.943-.406c-2.703 0-4.895 2.234-4.895 4.986 0 .39.043.771.127 1.135A13.601 13.601 0 0 1 7.048 5.44a14.057 14.057 0 0 1-4.513-3.704 5.021 5.021 0 0 0-.661 2.505c0 .825.2 1.636.58 2.36.38.725.929 1.34 1.596 1.79a4.826 4.826 0 0 1-2.217-.625v.062c0 2.416 1.688 4.431 3.925 4.89-.42.116-.853.174-1.288.175-.316 0-.623-.031-.922-.093.32.997.932 1.866 1.75 2.487.82.621 1.806.963 2.821.977a9.704 9.704 0 0 1-6.078 2.132c-.396 0-.785-.025-1.168-.07a13.65 13.65 0 0 0 7.503 2.244c9.003 0 13.926-7.598 13.926-14.187l-.017-.646a9.876 9.876 0 0 0 2.448-2.578Z" fill="#000"/>
</svg></svg>